<svg width="48" height="49" viewBox="0 0 48 49" fill="none" xmlns="http://www.w3.org/2000/svg">
<path d="M39 5.00635H13.5C11.9087 5.00635 10.3826 5.63849 9.25736 6.76371C8.13214 7.88892 7.5 9.41505 7.5 11.0063V42.5063C7.5 42.9042 7.65804 43.2857 7.93934 43.567C8.22064 43.8483 8.60218 44.0063 9 44.0063H36C36.3978 44.0063 36.7794 43.8483 37.0607 43.567C37.342 43.2857 37.5 42.9042 37.5 42.5063C37.5 42.1085 37.342 41.727 37.0607 41.4457C36.7794 41.1644 36.3978 41.0063 36 41.0063H10.5C10.5 40.2107 10.8161 39.4476 11.3787 38.885C11.9413 38.3224 12.7044 38.0063 13.5 38.0063H39C39.3978 38.0063 39.7794 37.8483 40.0607 37.567C40.342 37.2857 40.5 36.9042 40.5 36.5063V6.50635C40.5 6.10852 40.342 5.72699 40.0607 5.44569C39.7794 5.16438 39.3978 5.00635 39 5.00635ZM22.5 8.00635H31.5V21.5063L27.8981 18.8063C27.6385 18.6116 27.3227 18.5063 26.9981 18.5063C26.6736 18.5063 26.3578 18.6116 26.0981 18.8063L22.5 21.5063V8.00635ZM37.5 35.0063H13.5C12.4465 35.0049 11.4114 35.2824 10.5 35.8107V11.0063C10.5 10.2107 10.8161 9.44764 11.3787 8.88503C11.9413 8.32242 12.7044 8.00635 13.5 8.00635H19.5V24.5063C19.5 24.7849 19.5776 25.058 19.724 25.2949C19.8705 25.5319 20.08 25.7234 20.3292 25.848C20.5783 25.9726 20.8573 26.0253 21.1347 26.0003C21.4122 25.9753 21.6771 25.8735 21.9 25.7063L27 21.8813L32.1019 25.7063C32.361 25.9007 32.6761 26.0059 33 26.0063C33.3978 26.0063 33.7794 25.8483 34.0607 25.567C34.342 25.2857 34.5 24.9042 34.5 24.5063V8.00635H37.5V35.0063Z" fill="black"/>
</svg>
