<svg width="50" height="49" viewBox="0 0 50 49" fill="none" xmlns="http://www.w3.org/2000/svg">
<path d="M45.3125 9.1875H31.25C30.0371 9.1875 28.841 9.46424 27.7561 9.99579C26.6713 10.5273 25.7277 11.2991 25 12.25C24.2723 11.2991 23.3287 10.5273 22.2439 9.99579C21.159 9.46424 19.9629 9.1875 18.75 9.1875H4.6875C4.2731 9.1875 3.87567 9.34883 3.58265 9.63599C3.28962 9.92316 3.125 10.3126 3.125 10.7188V38.2812C3.125 38.6874 3.28962 39.0768 3.58265 39.364C3.87567 39.6512 4.2731 39.8125 4.6875 39.8125H18.75C19.9932 39.8125 21.1855 40.2965 22.0646 41.158C22.9436 42.0195 23.4375 43.1879 23.4375 44.4062C23.4375 44.8124 23.6021 45.2018 23.8951 45.489C24.1882 45.7762 24.5856 45.9375 25 45.9375C25.4144 45.9375 25.8118 45.7762 26.1049 45.489C26.3979 45.2018 26.5625 44.8124 26.5625 44.4062C26.5625 43.1879 27.0564 42.0195 27.9354 41.158C28.8145 40.2965 30.0068 39.8125 31.25 39.8125H45.3125C45.7269 39.8125 46.1243 39.6512 46.4174 39.364C46.7104 39.0768 46.875 38.6874 46.875 38.2812V10.7188C46.875 10.3126 46.7104 9.92316 46.4174 9.63599C46.1243 9.34883 45.7269 9.1875 45.3125 9.1875ZM18.75 36.75H6.25V12.25H18.75C19.9932 12.25 21.1855 12.734 22.0646 13.5955C22.9436 14.457 23.4375 15.6254 23.4375 16.8438V38.2812C22.0865 37.2849 20.4408 36.7474 18.75 36.75ZM43.75 36.75H31.25C29.5592 36.7474 27.9135 37.2849 26.5625 38.2812V16.8438C26.5625 15.6254 27.0564 14.457 27.9354 13.5955C28.8145 12.734 30.0068 12.25 31.25 12.25H43.75V36.75ZM31.25 16.8438H39.0625C39.4769 16.8438 39.8743 17.0051 40.1674 17.2922C40.4604 17.5794 40.625 17.9689 40.625 18.375C40.625 18.7811 40.4604 19.1706 40.1674 19.4578C39.8743 19.7449 39.4769 19.9062 39.0625 19.9062H31.25C30.8356 19.9062 30.4382 19.7449 30.1451 19.4578C29.8521 19.1706 29.6875 18.7811 29.6875 18.375C29.6875 17.9689 29.8521 17.5794 30.1451 17.2922C30.4382 17.0051 30.8356 16.8438 31.25 16.8438ZM40.625 24.5C40.625 24.9061 40.4604 25.2956 40.1674 25.5828C39.8743 25.8699 39.4769 26.0312 39.0625 26.0312H31.25C30.8356 26.0312 30.4382 25.8699 30.1451 25.5828C29.8521 25.2956 29.6875 24.9061 29.6875 24.5C29.6875 24.0939 29.8521 23.7044 30.1451 23.4172C30.4382 23.1301 30.8356 22.9688 31.25 22.9688H39.0625C39.4769 22.9688 39.8743 23.1301 40.1674 23.4172C40.4604 23.7044 40.625 24.0939 40.625 24.5ZM40.625 30.625C40.625 31.0311 40.4604 31.4206 40.1674 31.7078C39.8743 31.9949 39.4769 32.1562 39.0625 32.1562H31.25C30.8356 32.1562 30.4382 31.9949 30.1451 31.7078C29.8521 31.4206 29.6875 31.0311 29.6875 30.625C29.6875 30.2189 29.8521 29.8294 30.1451 29.5422C30.4382 29.2551 30.8356 29.0938 31.25 29.0938H39.0625C39.4769 29.0938 39.8743 29.2551 40.1674 29.5422C40.4604 29.8294 40.625 30.2189 40.625 30.625Z" fill="#343330"/>
</svg>
