<svg width="54" height="52" viewBox="0 0 54 52" fill="none" xmlns="http://www.w3.org/2000/svg">
<path d="M47.1035 25.9999C47.1035 26.4309 46.9289 26.8442 46.6181 27.149C46.3073 27.4537 45.8857 27.6249 45.4462 27.6249H27.2163C26.7767 27.6249 26.3552 27.4537 26.0444 27.149C25.7336 26.8442 25.559 26.4309 25.559 25.9999C25.559 25.569 25.7336 25.1556 26.0444 24.8509C26.3552 24.5461 26.7767 24.3749 27.2163 24.3749H45.4462C45.8857 24.3749 46.3073 24.5461 46.6181 24.8509C46.9289 25.1556 47.1035 25.569 47.1035 25.9999ZM27.2163 14.6249H45.4462C45.8857 14.6249 46.3073 14.4537 46.6181 14.149C46.9289 13.8442 47.1035 13.4309 47.1035 12.9999C47.1035 12.569 46.9289 12.1556 46.6181 11.8509C46.3073 11.5461 45.8857 11.3749 45.4462 11.3749H27.2163C26.7767 11.3749 26.3552 11.5461 26.0444 11.8509C25.7336 12.1556 25.559 12.569 25.559 12.9999C25.559 13.4309 25.7336 13.8442 26.0444 14.149C26.3552 14.4537 26.7767 14.6249 27.2163 14.6249ZM45.4462 37.3749H27.2163C26.7767 37.3749 26.3552 37.5461 26.0444 37.8509C25.7336 38.1556 25.559 38.569 25.559 38.9999C25.559 39.4309 25.7336 39.8442 26.0444 40.149C26.3552 40.4537 26.7767 40.6249 27.2163 40.6249H45.4462C45.8857 40.6249 46.3073 40.4537 46.6181 40.149C46.9289 39.8442 47.1035 39.4309 47.1035 38.9999C47.1035 38.569 46.9289 38.1556 46.6181 37.8509C46.3073 37.5461 45.8857 37.3749 45.4462 37.3749ZM17.7574 8.60024L12.3008 13.9526L10.1588 11.8502C9.84786 11.5453 9.42609 11.374 8.98631 11.374C8.54653 11.374 8.12477 11.5453 7.8138 11.8502C7.50283 12.1552 7.32813 12.5687 7.32812 12.9999C7.32812 13.4311 7.50283 13.8447 7.8138 14.1496L11.1283 17.3996C11.2822 17.5507 11.465 17.6706 11.6662 17.7523C11.8674 17.8341 12.0831 17.8762 12.3008 17.8762C12.5186 17.8762 12.7343 17.8341 12.9355 17.7523C13.1367 17.6706 13.3195 17.5507 13.4734 17.3996L20.1024 10.8996C20.4134 10.5947 20.5881 10.1811 20.5881 9.74993C20.5881 9.31871 20.4134 8.90516 20.1024 8.60024C19.7915 8.29532 19.3697 8.12402 18.9299 8.12402C18.4901 8.12402 18.0684 8.29532 17.7574 8.60024ZM17.7574 21.6002L12.3008 26.9526L10.1588 24.8502C9.84786 24.5453 9.42609 24.374 8.98631 24.374C8.54653 24.374 8.12477 24.5453 7.8138 24.8502C7.50283 25.1552 7.32813 25.5687 7.32812 25.9999C7.32813 26.2134 7.37102 26.4249 7.45435 26.6221C7.53768 26.8194 7.65982 26.9986 7.8138 27.1496L11.1283 30.3996C11.2822 30.5507 11.465 30.6706 11.6662 30.7523C11.8674 30.8341 12.0831 30.8762 12.3008 30.8762C12.5186 30.8762 12.7343 30.8341 12.9355 30.7523C13.1367 30.6706 13.3195 30.5507 13.4734 30.3996L20.1024 23.8996C20.4134 23.5947 20.5881 23.1811 20.5881 22.7499C20.5881 22.3187 20.4134 21.9052 20.1024 21.6002C19.7915 21.2953 19.3697 21.124 18.9299 21.124C18.4901 21.124 18.0684 21.2953 17.7574 21.6002ZM17.7574 34.6002L12.3008 39.9526L10.1588 37.8502C10.0049 37.6993 9.82206 37.5795 9.62088 37.4978C9.4197 37.4161 9.20407 37.374 8.98631 37.374C8.76856 37.374 8.55293 37.4161 8.35175 37.4978C8.15057 37.5795 7.96777 37.6993 7.8138 37.8502C7.65982 38.0012 7.53768 38.1805 7.45435 38.3777C7.37102 38.575 7.32813 38.7864 7.32812 38.9999C7.32813 39.2134 7.37102 39.4249 7.45435 39.6221C7.53768 39.8194 7.65982 39.9986 7.8138 40.1496L11.1283 43.3996C11.2822 43.5507 11.465 43.6706 11.6662 43.7523C11.8674 43.8341 12.0831 43.8762 12.3008 43.8762C12.5186 43.8762 12.7343 43.8341 12.9355 43.7523C13.1367 43.6706 13.3195 43.5507 13.4734 43.3996L20.1024 36.8996C20.4134 36.5947 20.5881 36.1811 20.5881 35.7499C20.5881 35.3187 20.4134 34.9052 20.1024 34.6002C19.7915 34.2953 19.3697 34.124 18.9299 34.124C18.4901 34.124 18.0684 34.2953 17.7574 34.6002Z" fill="#343330"/>
</svg>
