<svg width="70" height="68" viewBox="0 0 70 68" fill="none" xmlns="http://www.w3.org/2000/svg">
<path d="M7.99188 33.5752C8.21956 33.7426 8.47864 33.8645 8.75434 33.9337C9.03004 34.003 9.31694 34.0183 9.59868 33.9788C9.88042 33.9394 10.1515 33.8459 10.3964 33.7037C10.6413 33.5615 10.8552 33.3734 11.026 33.1502C12.3381 31.4347 14.0396 30.0424 15.9956 29.0834C17.9516 28.1244 20.1085 27.6252 22.2954 27.6252C24.4823 27.6252 26.6391 28.1244 28.5952 29.0834C30.5512 30.0424 32.2527 31.4347 33.5648 33.1502C33.9101 33.6006 34.4237 33.8982 34.9926 33.9774C35.5616 34.0566 36.1394 33.911 36.5989 33.5725C36.7627 33.4531 36.9078 33.3108 37.0296 33.1502C38.3417 31.4347 40.0432 30.0424 41.9992 29.0834C43.9552 28.1244 46.1121 27.6252 48.299 27.6252C50.4859 27.6252 52.6428 28.1244 54.5988 29.0834C56.5548 30.0424 58.2563 31.4347 59.5684 33.1502C59.9137 33.6011 60.4274 33.899 60.9967 33.9784C61.5659 34.0579 62.144 33.9124 62.6039 33.5739C63.0637 33.2354 63.3675 32.7316 63.4486 32.1734C63.5296 31.6153 63.3812 31.0484 63.036 30.5975C61.1176 28.0759 58.5595 26.0905 55.616 24.8388C57.2297 23.3942 58.3603 21.5049 58.8594 19.419C59.3585 17.333 59.2028 15.1479 58.4126 13.1503C57.6225 11.1527 56.2349 9.43598 54.432 8.22546C52.629 7.01495 50.495 6.36719 48.3099 6.36719C46.1247 6.36719 43.9907 7.01495 42.1877 8.22546C40.3848 9.43598 38.9972 11.1527 38.2071 13.1503C37.417 15.1479 37.2612 17.333 37.7603 19.419C38.2594 21.5049 39.39 23.3942 41.0037 24.8388C38.8783 25.7399 36.9476 27.03 35.3148 28.6399C33.682 27.03 31.7513 25.7399 29.6259 24.8388C31.2396 23.3942 32.3702 21.5049 32.8693 19.419C33.3684 17.333 33.2127 15.1479 32.4225 13.1503C31.6324 11.1527 30.2448 9.43598 28.4419 8.22546C26.6389 7.01495 24.5049 6.36719 22.3198 6.36719C20.1346 6.36719 18.0006 7.01495 16.1976 8.22546C14.3947 9.43598 13.0071 11.1527 12.217 13.1503C11.4269 15.1479 11.2711 17.333 11.7702 19.419C12.2693 21.5049 13.3999 23.3942 15.0136 24.8388C12.0571 26.0864 9.48643 28.0731 7.55844 30.6002C7.38768 30.8234 7.26344 31.0775 7.1928 31.3478C7.12217 31.6181 7.10653 31.8995 7.14678 32.1757C7.18703 32.452 7.28238 32.7177 7.42738 32.9579C7.57238 33.198 7.7642 33.4078 7.99188 33.5752ZM48.3017 10.6252C49.5876 10.6252 50.8446 10.9991 51.9138 11.6996C52.983 12.4001 53.8163 13.3957 54.3084 14.5606C54.8005 15.7255 54.9293 17.0073 54.6784 18.2439C54.4275 19.4805 53.8083 20.6164 52.899 21.508C51.9898 22.3996 50.8313 23.0067 49.5701 23.2527C48.3089 23.4987 47.0017 23.3724 45.8137 22.8899C44.6257 22.4074 43.6103 21.5903 42.8959 20.542C42.1814 19.4936 41.8001 18.261 41.8001 17.0002C41.8001 15.3094 42.4851 13.6879 43.7044 12.4924C44.9237 11.2968 46.5774 10.6252 48.3017 10.6252ZM22.2954 10.6252C23.5813 10.6252 24.8383 10.9991 25.9075 11.6996C26.9766 12.4001 27.81 13.3957 28.3021 14.5606C28.7941 15.7255 28.9229 17.0073 28.672 18.2439C28.4212 19.4805 27.802 20.6164 26.8927 21.508C25.9834 22.3996 24.825 23.0067 23.5638 23.2527C22.3026 23.4987 20.9953 23.3724 19.8073 22.8899C18.6193 22.4074 17.6039 21.5903 16.8895 20.542C16.1751 19.4936 15.7938 18.261 15.7938 17.0002C15.7938 15.3094 16.4788 13.6879 17.6981 12.4924C18.9173 11.2968 20.571 10.6252 22.2954 10.6252ZM55.616 52.4638C57.2297 51.0192 58.3603 49.1299 58.8594 47.044C59.3585 44.958 59.2028 42.7729 58.4126 40.7753C57.6225 38.7777 56.2349 37.061 54.432 35.8505C52.629 34.6399 50.495 33.9922 48.3099 33.9922C46.1247 33.9922 43.9907 34.6399 42.1877 35.8505C40.3848 37.061 38.9972 38.7777 38.2071 40.7753C37.417 42.7729 37.2612 44.958 37.7603 47.044C38.2594 49.1299 39.39 51.0192 41.0037 52.4638C38.8783 53.3649 36.9476 54.655 35.3148 56.2649C33.682 54.655 31.7513 53.3649 29.6259 52.4638C31.2396 51.0192 32.3702 49.1299 32.8693 47.044C33.3684 44.958 33.2127 42.7729 32.4225 40.7753C31.6324 38.7777 30.2448 37.061 28.4419 35.8505C26.6389 34.6399 24.5049 33.9922 22.3198 33.9922C20.1346 33.9922 18.0006 34.6399 16.1976 35.8505C14.3947 37.061 13.0071 38.7777 12.217 40.7753C11.4269 42.7729 11.2711 44.958 11.7702 47.044C12.2693 49.1299 13.3999 51.0192 15.0136 52.4638C12.0571 53.7114 9.48643 55.6981 7.55844 58.2252C7.38768 58.4484 7.26344 58.7025 7.1928 58.9728C7.12217 59.2431 7.10653 59.5245 7.14678 59.8007C7.18703 60.077 7.28238 60.3427 7.42738 60.5829C7.57238 60.823 7.7642 61.0328 7.99188 61.2002C8.21956 61.3676 8.47864 61.4894 8.75434 61.5587C9.03004 61.628 9.31694 61.6433 9.59868 61.6038C9.88042 61.5644 10.1515 61.4709 10.3964 61.3287C10.6413 61.1865 10.8552 60.9984 11.026 60.7752C12.3381 59.0597 14.0396 57.6674 15.9956 56.7084C17.9516 55.7494 20.1085 55.2502 22.2954 55.2502C24.4823 55.2502 26.6391 55.7494 28.5952 56.7084C30.5512 57.6674 32.2527 59.0597 33.5648 60.7752C33.9101 61.2256 34.4237 61.5232 34.9926 61.6024C35.5616 61.6816 36.1394 61.536 36.5989 61.1975C36.7627 61.0781 36.9078 60.9358 37.0296 60.7752C38.3417 59.0597 40.0432 57.6674 41.9992 56.7084C43.9552 55.7494 46.1121 55.2502 48.299 55.2502C50.4859 55.2502 52.6428 55.7494 54.5988 56.7084C56.5548 57.6674 58.2563 59.0597 59.5684 60.7752C59.9137 61.2261 60.4274 61.524 60.9967 61.6034C61.5659 61.6829 62.144 61.5374 62.6039 61.1989C63.0637 60.8604 63.3675 60.3566 63.4486 59.7984C63.5296 59.2403 63.3812 58.6734 63.036 58.2225C61.1176 55.7009 58.5595 53.7155 55.616 52.4638ZM22.2954 38.2502C23.5813 38.2502 24.8383 38.6241 25.9075 39.3246C26.9766 40.0251 27.81 41.0207 28.3021 42.1856C28.7941 43.3505 28.9229 44.6323 28.672 45.8689C28.4212 47.1055 27.802 48.2414 26.8927 49.133C25.9834 50.0246 24.825 50.6317 23.5638 50.8777C22.3026 51.1237 20.9953 50.9974 19.8073 50.5149C18.6193 50.0324 17.6039 49.2153 16.8895 48.1669C16.1751 47.1186 15.7938 45.886 15.7938 44.6252C15.7938 42.9344 16.4788 41.3129 17.6981 40.1174C18.9173 38.9218 20.571 38.2502 22.2954 38.2502ZM48.3017 38.2502C49.5876 38.2502 50.8446 38.6241 51.9138 39.3246C52.983 40.0251 53.8163 41.0207 54.3084 42.1856C54.8005 43.3505 54.9293 44.6323 54.6784 45.8689C54.4275 47.1055 53.8083 48.2414 52.899 49.133C51.9898 50.0246 50.8313 50.6317 49.5701 50.8777C48.3089 51.1237 47.0017 50.9974 45.8137 50.5149C44.6257 50.0324 43.6103 49.2153 42.8959 48.1669C42.1814 47.1186 41.8001 45.886 41.8001 44.6252C41.8001 42.9344 42.4851 41.3129 43.7044 40.1174C44.9237 38.9218 46.5774 38.2502 48.3017 38.2502Z" fill="#343330"/>
</svg>
